<svg xmlns="http://www.w3.org/2000/svg" width="121.452" height="84.488" viewBox="0 0 121.452 84.488">
  <path id="Path_12" data-name="Path 12" d="M0,952.4v84.488H121.452V952.4H0Zm7.921,7.921h105.61v53.2L92.673,990.684a4.1,4.1,0,0,0-3.168-1.32,4.846,4.846,0,0,0-2.64,1.188l-17.954,19.01-26.4-29.439a3.7,3.7,0,0,0-3.168-1.32,3.8,3.8,0,0,0-2.64,1.188L7.921,1010.882Zm62.046,2.64a11.881,11.881,0,1,0,11.881,11.881A12,12,0,0,0,69.967,962.961Zm0,7.921a3.96,3.96,0,1,1-3.96,3.96A3.89,3.89,0,0,1,69.967,970.882Zm-30.495,17.69,36.039,40.4H7.921v-6.337Zm50.3,10.561,23.762,26.007v3.7H86.2L74.191,1015.37Z" transform="translate(0 -952.4)" fill="#fff"/>
</svg>
