<svg xmlns="http://www.w3.org/2000/svg" width="691.471" height="319.436" viewBox="0 0 691.471 319.436">
  <g id="Graph_2" data-name="Graph 2" transform="translate(-136.5 -4119.5)">
    <g id="Group_3518" data-name="Group 3518">
      <path id="Path_5062" data-name="Path 5062" d="M3295.5,1987.983s95.879-1.115,162.432-105.191,105.058,86.227,177.562,74.4,79.388-228.9,153.422-208.151,41.31,153.6,197.026,158.1" transform="translate(-3158 2404.818)" fill="none" stroke="#d8d8d8" stroke-width="2"/>
      <path id="Path_5060" data-name="Path 5060" d="M3217.3,1609.3s53.351-135.387,155.105-48.886,221.795,93.827,337.387,0,185.03,87.966,185.03,87.966" transform="translate(-3079.801 2703.285)" fill="none" stroke="#5a80fb" stroke-width="2"/>
      <path id="Path_5061" data-name="Path 5061" d="M14.419,2.5A11.919,11.919,0,1,1,2.5,14.419,11.919,11.919,0,0,1,14.419,2.5Z" transform="translate(582.549 4272.191)" fill="#5a80fb" stroke="#fff" stroke-width="5"/>
      <g id="Group_3016" data-name="Group 3016" transform="translate(549.852 4228.392)">
        <rect id="Rectangle_52" data-name="Rectangle 52" width="98.208" height="34.166" rx="5" transform="translate(0 0)" fill="#5a80fb"/>
        <path id="Path_25" data-name="Path 25" d="M3635.6,1493l14.9,14.9,14.9-14.9Z" transform="translate(-3604.306 -1466.341)" fill="#5a80fb"/>
        <text id="_15.75" data-name="$15.75" transform="translate(25.309 19.861)" fill="#fff" font-size="13" font-family="Montserrat-Bold, Montserrat" font-weight="700"><tspan x="0" y="0">$15.75</tspan></text>
      </g>
    </g>
  </g>
</svg>
