<svg id="Device" xmlns="http://www.w3.org/2000/svg" width="297.949" height="585.895" viewBox="0 0 297.949 585.895">
  <path id="Path_2582" data-name="Path 2582" d="M43.507,584.9A34.561,34.561,0,0,1,9,550.388V35.507A34.513,34.513,0,0,1,43.507,1H258.769a34.561,34.561,0,0,1,34.507,34.507V550.388A34.561,34.561,0,0,1,258.769,584.9Z" transform="translate(-2.127)" fill="none" stroke="#5a80fb" stroke-miterlimit="10" stroke-width="2"/>
  <path id="Path_2583" data-name="Path 2583" d="M261.354,580.211H46.165A27.2,27.2,0,0,1,19,553.047V38.165A27.2,27.2,0,0,1,46.165,11H261.427a27.2,27.2,0,0,1,27.165,27.165V553.047A27.26,27.26,0,0,1,261.354,580.211Z" transform="translate(-4.785 -2.658)" fill="none" stroke="#5a80fb" stroke-miterlimit="10" stroke-width="2"/>
  <rect id="Rectangle_941" data-name="Rectangle 941" width="240.078" height="462.535" transform="translate(28.899 59.367)" fill="none" stroke="#5a80fb" stroke-miterlimit="10" stroke-width="2"/>
  <circle id="Ellipse_55" data-name="Ellipse 55" cx="4.405" cy="4.405" r="4.405" transform="translate(99.821 34.112)" fill="none" stroke="#5a80fb" stroke-miterlimit="10" stroke-width="2"/>
  <path id="Path_2584" data-name="Path 2584" d="M214.671,54.308H173.337a2.945,2.945,0,0,1-2.937-2.937v-.734a2.945,2.945,0,0,1,2.937-2.937h41.334a2.945,2.945,0,0,1,2.937,2.937v.734A2.945,2.945,0,0,1,214.671,54.308Z" transform="translate(-45.03 -12.414)" fill="none" stroke="#5a80fb" stroke-miterlimit="10" stroke-width="2"/>
  <circle id="Ellipse_56" data-name="Ellipse 56" cx="3.524" cy="3.524" r="3.524" transform="translate(145.414 20.089)" fill="#5a80fb"/>
  <circle id="Ellipse_57" data-name="Ellipse 57" cx="19.456" cy="19.456" r="19.456" transform="translate(129.482 530.639)" fill="none" stroke="#5a80fb" stroke-miterlimit="10" stroke-width="2"/>
  <path id="Path_2585" data-name="Path 2585" d="M6.873,102.305H5.405A4.418,4.418,0,0,1,1,97.9v-13A4.418,4.418,0,0,1,5.405,80.5H6.873Z" transform="translate(0 -21.133)" fill="none" stroke="#5a80fb" stroke-miterlimit="10" stroke-width="2"/>
  <path id="Path_2586" data-name="Path 2586" d="M6.873,168.169H5.405A4.418,4.418,0,0,1,1,163.764V124.705A4.418,4.418,0,0,1,5.405,120.3H6.873Z" transform="translate(0 -31.712)" fill="none" stroke="#5a80fb" stroke-miterlimit="10" stroke-width="2"/>
  <path id="Path_2587" data-name="Path 2587" d="M6.873,243.069H5.405A4.418,4.418,0,0,1,1,238.664V199.605A4.418,4.418,0,0,1,5.405,195.2H6.873Z" transform="translate(0 -51.622)" fill="none" stroke="#5a80fb" stroke-miterlimit="10" stroke-width="2"/>
  <path id="Path_2588" data-name="Path 2588" d="M396.1,120.3h1.468a4.418,4.418,0,0,1,4.405,4.405v39.059a4.418,4.418,0,0,1-4.405,4.405H396.1Z" transform="translate(-105.025 -31.712)" fill="none" stroke="#5a80fb" stroke-miterlimit="10" stroke-width="2"/>
</svg>
