<svg xmlns="http://www.w3.org/2000/svg" width="876.778" height="690.3" viewBox="0 0 876.778 690.3">
  <g id="Group_1281" data-name="Group 1281" transform="translate(-810 -12300)">
    <g id="Group_1276" data-name="Group 1276" transform="translate(874 12301)">
      <rect id="Rectangle_942" data-name="Rectangle 942" width="811.778" height="577.7" transform="translate(0 0)" fill="none" stroke="#5a80fb" stroke-miterlimit="10" stroke-width="2"/>
      <rect id="Rectangle_943" data-name="Rectangle 943" width="811.778" height="537.342" transform="translate(0 40.358)" fill="#edf1fe" stroke="#5a80fb" stroke-miterlimit="10" stroke-width="2"/>
      <g id="Group_1275" data-name="Group 1275" transform="translate(17.066 16.259)">
        <ellipse id="Ellipse_58" data-name="Ellipse 58" cx="4.151" cy="4.151" rx="4.151" ry="4.151" transform="translate(0 0)" fill="#5a80fb"/>
        <ellipse id="Ellipse_59" data-name="Ellipse 59" cx="4.151" cy="4.151" rx="4.151" ry="4.151" transform="translate(16.316 0)" fill="#5a80fb"/>
        <ellipse id="Ellipse_60" data-name="Ellipse 60" cx="4.151" cy="4.151" rx="4.151" ry="4.151" transform="translate(32.69 0)" fill="#5a80fb"/>
      </g>
    </g>
    <g id="Group_1277" data-name="Group 1277" transform="translate(1260.214 12562.524)">
      <path id="Path_12" data-name="Path 12" d="M0,952.4v68.408H98.336V952.4H0Zm6.413,6.413h85.51v43.076L75.035,983.4a3.315,3.315,0,0,0-2.565-1.069,3.924,3.924,0,0,0-2.138.962L55.8,998.682,34.418,974.846a2.992,2.992,0,0,0-2.565-1.069,3.074,3.074,0,0,0-2.138.962l-23.3,25.012Zm50.237,2.138a9.62,9.62,0,1,0,9.62,9.62A9.718,9.718,0,0,0,56.65,960.951Zm0,6.413a3.207,3.207,0,1,1-3.207,3.207A3.149,3.149,0,0,1,56.65,967.364ZM31.959,981.687l29.18,32.707H6.413v-5.13Zm40.724,8.551,19.24,21.057v2.993H69.8l-9.727-10.9Z" transform="translate(0 -952.4)" fill="#fff"/>
    </g>
    <g id="Group_1279" data-name="Group 1279" transform="translate(810 12445.2)">
      <path id="Path_2582" data-name="Path 2582" d="M41.1,544.1A32.146,32.146,0,0,1,9,512V33.1A32.1,32.1,0,0,1,41.1,1H241.318a32.146,32.146,0,0,1,32.1,32.1V512a32.146,32.146,0,0,1-32.1,32.1Z" transform="translate(-2.537)" fill="#fff" stroke="#5a80fb" stroke-miterlimit="10" stroke-width="2"/>
      <path id="Path_2583" data-name="Path 2583" d="M244.421,540.442H44.267A25.3,25.3,0,0,1,19,515.175V36.267A25.3,25.3,0,0,1,44.267,11H244.489a25.3,25.3,0,0,1,25.267,25.267V515.175A25.355,25.355,0,0,1,244.421,540.442Z" transform="translate(-5.708 -3.171)" fill="rgba(255,255,255,0)" stroke="#5a80fb" stroke-miterlimit="10" stroke-width="2"/>
      <rect id="Rectangle_941" data-name="Rectangle 941" width="223.304" height="430.219" transform="translate(26.95 55.289)" fill="#edf1fe" stroke="#5a80fb" stroke-miterlimit="10" stroke-width="2"/>
      <circle id="Ellipse_55" data-name="Ellipse 55" cx="4.097" cy="4.097" r="4.097" transform="translate(92.917 31.798)" fill="none" stroke="#5a80fb" stroke-miterlimit="10" stroke-width="2"/>
      <path id="Path_2584" data-name="Path 2584" d="M211.578,53.846H173.132a2.74,2.74,0,0,1-2.732-2.732v-.683a2.74,2.74,0,0,1,2.732-2.732h38.447a2.74,2.74,0,0,1,2.732,2.732v.683A2.74,2.74,0,0,1,211.578,53.846Z" transform="translate(-53.719 -14.809)" fill="none" stroke="#5a80fb" stroke-miterlimit="10" stroke-width="2"/>
      <circle id="Ellipse_56" data-name="Ellipse 56" cx="3.278" cy="3.278" r="3.278" transform="translate(135.324 18.755)" fill="#5a80fb"/>
      <circle id="Ellipse_57" data-name="Ellipse 57" cx="18.096" cy="18.096" r="18.096" transform="translate(120.505 493.635)" fill="none" stroke="#5a80fb" stroke-miterlimit="10" stroke-width="2"/>
      <path id="Path_2585" data-name="Path 2585" d="M6.463,100.782H5.1a4.109,4.109,0,0,1-4.1-4.1V84.6a4.109,4.109,0,0,1,4.1-4.1H6.463Z" transform="translate(0 -25.211)" fill="none" stroke="#5a80fb" stroke-miterlimit="10" stroke-width="2"/>
      <path id="Path_2586" data-name="Path 2586" d="M6.463,164.824H5.1a4.109,4.109,0,0,1-4.1-4.1V124.4a4.109,4.109,0,0,1,4.1-4.1H6.463Z" transform="translate(0 -37.832)" fill="none" stroke="#5a80fb" stroke-miterlimit="10" stroke-width="2"/>
      <path id="Path_2587" data-name="Path 2587" d="M6.463,239.724H5.1a4.109,4.109,0,0,1-4.1-4.1V199.3a4.109,4.109,0,0,1,4.1-4.1H6.463Z" transform="translate(0 -61.583)" fill="none" stroke="#5a80fb" stroke-miterlimit="10" stroke-width="2"/>
      <path id="Path_2588" data-name="Path 2588" d="M396.1,120.3h1.366a4.109,4.109,0,0,1,4.1,4.1v36.33a4.109,4.109,0,0,1-4.1,4.1H396.1Z" transform="translate(-125.291 -37.832)" fill="none" stroke="#5a80fb" stroke-miterlimit="10" stroke-width="2"/>
    </g>
    <g id="Group_1280" data-name="Group 1280" transform="translate(899.214 12683.524)">
      <path id="Path_12-2" data-name="Path 12" d="M0,952.4v68.408H98.336V952.4H0Zm6.413,6.413h85.51v43.076L75.035,983.4a3.315,3.315,0,0,0-2.565-1.069,3.924,3.924,0,0,0-2.138.962L55.8,998.682,34.418,974.846a2.992,2.992,0,0,0-2.565-1.069,3.074,3.074,0,0,0-2.138.962l-23.3,25.012Zm50.237,2.138a9.62,9.62,0,1,0,9.62,9.62A9.718,9.718,0,0,0,56.65,960.951Zm0,6.413a3.207,3.207,0,1,1-3.207,3.207A3.149,3.149,0,0,1,56.65,967.364ZM31.959,981.687l29.18,32.707H6.413v-5.13Zm40.724,8.551,19.24,21.057v2.993H69.8l-9.727-10.9Z" transform="translate(0 -952.4)" fill="#fff"/>
    </g>
  </g>
</svg>
