<svg xmlns="http://www.w3.org/2000/svg" width="813.552" height="578.6" viewBox="0 0 813.552 578.6">
  <g id="Group_1271" data-name="Group 1271" transform="translate(-313 -5733.9)">
    <g id="Group_1269" data-name="Group 1269" transform="translate(313 5733.9)">
      <path id="Path_2579" data-name="Path 2579" d="M38.242,577.535A37.309,37.309,0,0,1,1,540.293V38.242A37.309,37.309,0,0,1,38.242,1H775.31a37.309,37.309,0,0,1,37.242,37.242V540.358A37.31,37.31,0,0,1,775.31,577.6H38.242Z" fill="none" stroke="#5a80fb" stroke-miterlimit="10" stroke-width="2"/>
      <path id="Path_2580" data-name="Path 2580" d="M779.47,573.854H42.4a29.4,29.4,0,0,1-29.4-29.4V42.4A29.4,29.4,0,0,1,42.4,13H779.47a29.4,29.4,0,0,1,29.4,29.4V544.517A29.39,29.39,0,0,1,779.47,573.854Z" transform="translate(-4.16 -4.16)" fill="none" stroke="#5a80fb" stroke-miterlimit="10" stroke-width="2"/>
      <path id="Path_2581" data-name="Path 2581" d="M775.689,561.557H113.5a3.374,3.374,0,0,1-3.4-3.4V56.7a3.374,3.374,0,0,1,3.4-3.4H775.689a3.374,3.374,0,0,1,3.4,3.4V558.16A3.374,3.374,0,0,1,775.689,561.557Z" transform="translate(-37.817 -18.129)" fill="#edf1fe" stroke="#5a80fb" stroke-miterlimit="10" stroke-width="2"/>
      <circle id="Ellipse_52" data-name="Ellipse 52" cx="17.902" cy="17.902" r="17.902" transform="translate(755.448 271.365)" fill="none" stroke="#5a80fb" stroke-miterlimit="10" stroke-width="2"/>
      <circle id="Ellipse_53" data-name="Ellipse 53" cx="5.815" cy="5.815" r="5.815" transform="translate(34.518 283.452)" fill="none" stroke="#5a80fb" stroke-miterlimit="10" stroke-width="2"/>
      <circle id="Ellipse_54" data-name="Ellipse 54" cx="3.594" cy="3.594" r="3.594" transform="translate(36.739 310.698)" fill="#5a80fb"/>
    </g>
    <g id="Group_1270" data-name="Group 1270" transform="translate(659 5028.6)">
      <path id="Path_12" data-name="Path 12" d="M0,952.4v84.488H121.452V952.4H0Zm7.921,7.921h105.61v53.2L92.673,990.684a4.1,4.1,0,0,0-3.168-1.32,4.846,4.846,0,0,0-2.64,1.188l-17.954,19.01-26.4-29.439a3.7,3.7,0,0,0-3.168-1.32,3.8,3.8,0,0,0-2.64,1.188L7.921,1010.882Zm62.046,2.64a11.881,11.881,0,1,0,11.881,11.881A12,12,0,0,0,69.967,962.961Zm0,7.921a3.96,3.96,0,1,1-3.96,3.96A3.89,3.89,0,0,1,69.967,970.882Zm-30.495,17.69,36.039,40.4H7.921v-6.337Zm50.3,10.561,23.762,26.007v3.7H86.2L74.191,1015.37Z" transform="translate(0 0)" fill="#fff"/>
    </g>
  </g>
</svg>
