<svg xmlns="http://www.w3.org/2000/svg" width="844.533" height="518.405" viewBox="0 0 844.533 518.405">
  <g id="Group_1364" data-name="Group 1364" transform="translate(1 1)">
    <rect id="Rectangle_936" data-name="Rectangle 936" width="666.29" height="419.189" transform="translate(88.122 34.021)" fill="#edf1fe" stroke="#5a80fb" stroke-miterlimit="10" stroke-width="2"/>
    <path id="Path_2568" data-name="Path 2568" d="M140.3,488.962c-13.848,0-11.309-18.326-11.309-32.22V26.058A25.187,25.187,0,0,1,154.145.9H828.051a25.187,25.187,0,0,1,25.158,25.158V456.741c0,13.848,2.585,32.22-11.309,32.22H140.3Z" transform="translate(-69.808 -0.9)" fill="none" stroke="#5a80fb" stroke-miterlimit="10" stroke-width="2"/>
    <path id="Path_2569" data-name="Path 2569" d="M845.8,482.874h-696.2a8.5,8.5,0,0,1-8.494-8.494V32.618A19.6,19.6,0,0,1,160.718,13H834.625a19.6,19.6,0,0,1,19.618,19.618V474.427A8.393,8.393,0,0,1,845.8,482.874Z" transform="translate(-76.428 -7.414)" fill="none" stroke="#5a80fb" stroke-miterlimit="10" stroke-width="2"/>
    <circle id="Ellipse_48" data-name="Ellipse 48" cx="3.693" cy="3.693" r="3.693" transform="translate(417.574 16.249)" fill="none" stroke="#5a80fb" stroke-miterlimit="10" stroke-width="2"/>
    <g id="Group_1265" data-name="Group 1265" transform="translate(0 488.062)">
      <rect id="Rectangle_937" data-name="Rectangle 937" width="842.533" height="16.295" fill="none" stroke="#5a80fb" stroke-miterlimit="10" stroke-width="2"/>
      <path id="Path_2570" data-name="Path 2570" d="M448.994,1105.6H82.105c-68.965,0-81.105-12-81.105-12m394.539,12H762.428c68.965,0,81.151-12,81.151-12" transform="translate(-1 -1077.259)" fill="none" stroke="#5a80fb" stroke-miterlimit="10" stroke-width="2"/>
      <path id="Path_2571" data-name="Path 2571" d="M836.018,1066.371H785.195c-12.833,0-15.695-8.171-15.695-8.171m66.518,8.171h50.823c12.833,0,15.695-8.171,15.695-8.171" transform="translate(-414.752 -1058.2)" fill="none" stroke="#5a80fb" stroke-miterlimit="10" stroke-width="2"/>
    </g>
  </g>
</svg>
